<?xml version="1.0" standalone="no"?>
<!DOCTYPE svg PUBLIC "-//W3C//DTD SVG 20010904//EN"
 "http://www.w3.org/TR/2001/REC-SVG-20010904/DTD/svg10.dtd">
<svg version="1.0" xmlns="http://www.w3.org/2000/svg"
 width="1024.000000pt" height="1024.000000pt" viewBox="0 0 1024.000000 1024.000000"
 preserveAspectRatio="xMidYMid meet">

<g transform="translate(0.000000,1024.000000) scale(0.100000,-0.100000)"
fill="#000000" stroke="none">
<path d="M4330 9375 c-8 -2 -49 -9 -90 -15 -162 -26 -292 -80 -440 -181 -147
-100 -251 -215 -296 -329 -28 -69 -48 -84 -155 -114 -118 -34 -187 -66 -285
-132 -195 -131 -342 -351 -360 -541 -9 -90 -27 -126 -85 -169 -66 -48 -160
-153 -225 -250 -200 -301 -223 -606 -69 -941 32 -69 41 -78 73 -74 13 2 182
119 182 127 0 2 -11 33 -25 70 -66 176 -72 363 -17 512 35 94 119 226 184 290
l44 42 63 -70 c56 -63 220 -198 278 -228 88 -47 217 44 199 140 -9 50 -34 78
-124 141 -92 65 -157 133 -183 192 -29 65 -35 157 -14 234 24 93 47 133 127
217 90 94 186 145 333 175 172 36 322 17 481 -61 105 -51 170 -120 211 -221
15 -39 38 -81 49 -94 49 -53 158 -40 202 25 20 30 23 45 20 100 -3 56 -10 78
-48 145 -59 105 -179 225 -280 282 -71 40 -206 86 -292 99 -21 4 -38 12 -38
19 0 20 162 170 227 208 88 53 141 75 250 103 327 83 619 -58 715 -345 22 -66
23 -69 28 -1006 4 -750 8 -945 18 -963 19 -32 71 -62 110 -62 43 0 107 33 129
67 17 25 18 92 25 948 6 800 9 928 23 979 52 194 210 344 408 391 89 21 228
19 321 -5 44 -11 130 -47 198 -82 94 -49 138 -78 194 -133 41 -38 75 -76 76
-83 2 -9 -24 -22 -77 -37 -133 -39 -193 -65 -268 -115 -105 -70 -160 -122
-205 -193 -71 -112 -92 -162 -92 -218 0 -127 88 -183 200 -126 40 20 46 28 61
79 9 31 26 72 38 91 56 90 186 175 327 211 78 20 246 21 339 1 269 -57 468
-285 453 -518 -8 -128 -69 -218 -216 -320 -40 -28 -80 -63 -88 -78 -40 -78 12
-178 101 -195 47 -8 62 -2 172 77 98 71 152 122 200 192 14 20 34 37 43 37 36
0 172 -177 225 -291 35 -78 55 -164 55 -240 0 -89 -24 -223 -55 -305 -29 -76
-26 -83 39 -113 22 -10 63 -35 90 -54 37 -27 54 -34 67 -27 20 11 83 156 112
260 16 59 20 106 21 215 1 169 -17 245 -96 398 -67 130 -141 227 -276 363 -87
88 -112 118 -116 145 -22 151 -31 187 -67 258 -107 213 -367 419 -583 462 -84
17 -93 23 -130 101 -51 106 -151 227 -248 299 -112 83 -315 182 -427 208 -112
26 -324 29 -439 5 -170 -35 -322 -122 -443 -253 l-76 -83 -47 60 c-103 134
-254 231 -426 272 -77 18 -273 34 -310 25z"/>
<path d="M3625 8009 c-45 -40 -65 -83 -65 -141 0 -58 86 -213 162 -290 67 -70
124 -97 279 -137 134 -35 176 -51 218 -87 44 -36 59 -70 78 -170 13 -72 21
-91 49 -121 32 -34 37 -35 85 -31 92 9 144 73 135 163 -17 159 -73 275 -176
368 -68 61 -147 98 -302 140 -188 50 -216 73 -253 210 -22 81 -57 116 -121
124 -47 5 -53 3 -89 -28z"/>
<path d="M6490 8033 c-47 -18 -81 -69 -100 -151 -21 -92 -68 -130 -210 -172
-313 -90 -450 -210 -496 -432 -30 -143 21 -248 121 -248 70 0 120 57 130 148
16 145 79 203 278 256 244 65 319 118 420 298 39 71 47 93 47 137 0 100 -47
162 -127 167 -26 2 -55 1 -63 -3z"/>
<path d="M3500 6874 c-359 -43 -548 -123 -750 -319 -103 -100 -113 -104 -255
-130 -206 -37 -247 -60 -264 -150 -12 -66 0 -202 22 -241 11 -22 39 -43 92
-70 41 -22 77 -45 80 -52 3 -7 10 -66 16 -130 11 -123 50 -290 94 -407 47
-128 138 -269 267 -417 109 -124 331 -254 523 -305 90 -24 118 -27 270 -27
254 0 401 32 597 130 105 52 182 110 269 201 242 254 351 520 353 862 l1 144
84 48 c45 26 106 53 134 59 93 20 248 -5 349 -56 26 -13 48 -25 49 -27 0 -1 4
-87 9 -192 6 -153 13 -209 33 -287 54 -207 189 -430 356 -591 89 -85 115 -103
214 -152 152 -74 270 -111 412 -129 287 -38 469 -10 710 109 136 68 210 123
299 223 189 213 294 456 326 752 13 118 34 223 47 227 4 2 37 18 73 36 90 45
104 68 108 176 4 103 -8 159 -44 195 -31 31 -62 40 -217 67 -64 11 -129 24
-143 29 -14 6 -68 51 -120 101 -112 106 -182 154 -302 204 -212 89 -381 119
-622 112 -277 -9 -461 -63 -665 -195 -95 -62 -239 -209 -309 -314 -32 -49 -64
-88 -72 -88 -7 0 -46 13 -86 29 -120 47 -172 56 -305 54 -136 -2 -222 -19
-322 -64 -35 -16 -70 -29 -77 -29 -7 0 -21 15 -30 33 -38 75 -121 181 -199
256 -168 161 -375 265 -610 306 -89 16 -328 27 -395 19z m336 -288 c288 -51
535 -215 634 -421 54 -113 65 -174 64 -350 -1 -144 -3 -169 -28 -250 -147
-487 -534 -735 -1029 -660 -125 19 -175 34 -264 78 -103 52 -210 142 -281 236
-70 92 -164 276 -188 366 -25 93 -30 316 -10 408 22 99 90 237 155 315 112
134 308 238 524 277 98 18 324 18 423 1z m3079 -19 c295 -78 495 -255 574
-511 22 -72 25 -99 25 -241 0 -134 -4 -174 -22 -245 -66 -252 -243 -485 -444
-584 -220 -110 -538 -125 -764 -37 -161 63 -277 151 -377 286 -277 377 -257
844 49 1136 80 76 163 125 289 169 141 49 218 60 405 56 139 -3 181 -7 265
-29z"/>
<path d="M2438 4528 c-9 -7 -49 -62 -90 -123 -41 -60 -105 -154 -141 -208 -37
-54 -67 -103 -67 -110 1 -28 23 -40 126 -63 276 -61 350 -80 503 -126 585
-175 1197 -455 1646 -753 213 -141 422 -326 477 -423 17 -29 41 -60 54 -69 29
-19 189 -28 294 -16 l75 8 31 58 c75 142 340 357 719 584 523 315 1323 624
1895 734 121 23 140 31 140 58 0 15 -249 391 -287 433 -27 30 -69 22 -279 -51
-754 -263 -1358 -593 -1821 -995 -198 -171 -416 -410 -532 -583 -23 -35 -48
-63 -56 -63 -7 0 -40 37 -72 83 -252 358 -727 765 -1228 1052 -130 75 -483
252 -605 303 -222 94 -725 282 -754 282 -6 0 -19 -6 -28 -12z"/>
<path d="M1912 3838 c-68 -58 -83 -77 -73 -96 5 -9 68 -32 162 -57 251 -69
815 -247 1120 -354 156 -55 390 -136 519 -181 313 -109 486 -178 659 -261 132
-63 161 -72 161 -49 0 11 -207 151 -348 234 -143 84 -440 233 -652 326 -335
147 -660 256 -1085 365 -137 35 -288 75 -333 88 l-84 24 -46 -39z"/>
<path d="M8060 3819 c-378 -101 -623 -171 -753 -213 -476 -158 -1152 -478
-1444 -684 -85 -60 -103 -79 -87 -94 3 -3 56 18 117 47 248 117 637 259 1487
541 338 113 683 223 765 245 261 70 255 68 255 87 0 28 -101 122 -130 121 -14
0 -108 -23 -210 -50z"/>
<path d="M1545 3596 c-15 -23 -13 -31 48 -178 36 -84 104 -249 152 -367 47
-117 156 -383 242 -590 86 -207 193 -468 239 -580 47 -112 89 -210 95 -217 11
-14 643 -226 1124 -378 1146 -362 1228 -386 1241 -375 17 14 18 118 4 339 -5
85 -21 394 -35 685 -13 292 -27 557 -30 590 l-6 60 -54 17 c-55 18 -397 141
-675 244 -443 163 -998 357 -1350 473 -522 171 -935 301 -960 301 -11 0 -27
-11 -35 -24z"/>
<path d="M8535 3579 c-906 -279 -1374 -434 -2055 -681 -168 -60 -393 -141
-500 -178 -248 -85 -347 -127 -355 -148 -7 -18 -13 -125 -45 -837 -34 -753
-36 -823 -18 -830 9 -4 92 18 184 49 239 77 1111 349 1222 381 52 14 160 50
240 79 81 29 268 92 415 140 166 54 277 96 291 109 25 22 117 238 444 1037
295 723 352 865 352 882 0 14 -29 40 -42 37 -2 0 -61 -18 -133 -40z"/>
<path d="M4802 2518 c-23 -23 -6 -1142 24 -1576 6 -90 7 -93 36 -108 51 -26
158 -44 270 -44 89 0 121 4 185 26 43 14 83 31 90 37 8 8 15 111 22 332 19
588 33 1169 29 1250 -3 74 -5 80 -25 83 -14 2 -41 -10 -69 -33 -68 -51 -135
-68 -258 -63 -88 3 -109 7 -166 35 -36 17 -79 41 -96 52 -23 16 -33 18 -42 9z"/>
</g>
</svg>
